<?xml version="1.0" encoding="UTF-8"?>
<svg id="Livello_2" data-name="Livello 2" xmlns="http://www.w3.org/2000/svg" viewBox="0 0 694.2 176.88">
  <defs>
    <style>
      .cls-1 {
        fill: #252525;
        stroke-width: 0px;
      }

      .cls-2 {
        stroke-width: .76px;
      }

      .cls-2, .cls-3 {
        fill: none;
        stroke: #252525;
        stroke-miterlimit: 10;
      }

      .cls-3 {
        stroke-width: 2px;
      }
    </style>
  </defs>
  <g id="Livello_1-2" data-name="Livello 1">
    <path class="cls-1" d="M106.8,167.4h-41.8L25,60c1.33,10.54,2.37,19.83,3.1,27.9s1.1,17.63,1.1,28.7v50.8H0V28.8h40.8l41,107.6c-2.93-18.27-4.4-35.47-4.4-51.6V28.8h29.4v138.6Z"/>
    <path class="cls-1" d="M393.4,66.3c5.07,5.67,7.6,13.5,7.6,23.5v77.6h-31.6v-72.2c0-9.47-3-14.2-9-14.2-3.33,0-6.27,1.13-8.8,3.4-2.53,2.27-5,5.73-7.4,10.4v72.6h-31.6v-72.2c0-9.47-3-14.2-9-14.2-3.2,0-6.1,1.17-8.7,3.5-2.6,2.33-5.1,5.77-7.5,10.3v72.6h-31.6V61.2h27.6l2.2,12.4c4.13-5.33,8.7-9.3,13.7-11.9s10.7-3.9,17.1-3.9c6,0,11.17,1.47,15.5,4.4s7.5,7.07,9.5,12.4c4.27-5.73,8.97-9.97,14.1-12.7s11.03-4.1,17.7-4.1c8.4,0,15.13,2.83,20.2,8.5Z"/>
    <path class="cls-1" d="M510.9,145.4c-1.13-1.87-1.7-4.8-1.7-8.8v-41.2c0-12.53-3.53-21.93-10.6-28.2-7.07-6.27-18.2-9.4-33.4-9.4-6,0-12.5.67-19.5,2s-13.83,3.27-20.5,5.8l7.2,20.8c5.2-1.73,10.27-3.1,15.2-4.1s9.13-1.5,12.6-1.5c6.67,0,11.33,1.17,14,3.5s4,6.63,4,12.9v4.6h-10.8c-16.13,0-28.47,3.07-37,9.2s-12.8,15-12.8,26.6c0,9.87,3.13,17.87,9.4,24s14.67,9.2,25.2,9.2c14.4,0,25.07-5.33,32-16,2.27,5.07,5.47,8.77,9.6,11.1,4.13,2.33,9.46,3.77,16,4.3l6.6-20.6c-2.53-.93-4.37-2.33-5.5-4.2h0ZM478.19,138c-4,6.8-9.6,10.2-16.8,10.2-3.87,0-6.9-1.17-9.1-3.5-2.2-2.33-3.3-5.63-3.3-9.9,0-5.33,1.77-9.27,5.3-11.8,3.53-2.53,8.9-3.8,16.1-3.8h7.8v18.8h0Z"/>
    <path class="cls-1" d="M597.99,15.6v52.2c-6.67-6.67-15.07-10-25.2-10-8.53,0-16.1,2.4-22.7,7.2-6.6,4.8-11.7,11.47-15.3,20-3.6,8.54-5.4,18.2-5.4,29,0,17.6,3.43,31.47,10.3,41.6s16.9,15.2,30.1,15.2,22.73-5.27,30.2-15.8l1.6,12.4h28V19l-31.6-3.4h0ZM597.99,135.6c-4.93,8-11.07,12-18.4,12-5.6,0-9.9-2.47-12.9-7.4s-4.5-13.6-4.5-26c0-11.33,1.73-19.73,5.2-25.2,3.46-5.46,8.13-8.2,14-8.2,3.33,0,6.3.73,8.9,2.2,2.6,1.47,5.17,3.73,7.7,6.8v45.8h0Z"/>
    <rect class="cls-1" x="654.39" y="61.2" width="31.6" height="106.2"/>
    <g>
      <ellipse class="cls-3" cx="180.48" cy="114.16" rx="61.75" ry="61.55"/>
      <ellipse class="cls-3" cx="180.98" cy="114.16" rx="52.25" ry="61.55"/>
      <ellipse class="cls-3" cx="180.98" cy="114.16" rx="41.25" ry="61.55"/>
      <ellipse class="cls-3" cx="180.98" cy="114.16" rx="29.25" ry="61.55"/>
      <ellipse class="cls-3" cx="180.98" cy="114.16" rx="19.25" ry="61.55"/>
      <ellipse class="cls-3" cx="181.23" cy="114.1" rx="8.5" ry="61.55"/>
      <ellipse class="cls-3" cx="181.45" cy="114.13" rx="61.55" ry="61.75"/>
      <ellipse class="cls-3" cx="181.45" cy="114.63" rx="61.55" ry="52.25"/>
      <ellipse class="cls-3" cx="181.45" cy="114.63" rx="61.55" ry="41.25"/>
      <ellipse class="cls-3" cx="181.45" cy="114.63" rx="61.55" ry="29.25"/>
      <ellipse class="cls-3" cx="181.45" cy="114.63" rx="61.55" ry="19.25"/>
      <ellipse class="cls-3" cx="181.51" cy="114.88" rx="61.55" ry="8.5"/>
    </g>
    <g>
      <ellipse class="cls-2" cx="670.12" cy="23.78" rx="23.39" ry="23.31"/>
      <ellipse class="cls-2" cx="670.31" cy="23.78" rx="19.79" ry="23.31"/>
      <ellipse class="cls-2" cx="670.31" cy="23.78" rx="15.62" ry="23.31"/>
      <ellipse class="cls-2" cx="670.31" cy="23.78" rx="11.08" ry="23.31"/>
      <ellipse class="cls-2" cx="670.31" cy="23.78" rx="7.29" ry="23.31"/>
      <ellipse class="cls-2" cx="670.4" cy="23.76" rx="3.22" ry="23.31"/>
      <ellipse class="cls-2" cx="670.49" cy="23.77" rx="23.31" ry="23.39"/>
      <ellipse class="cls-2" cx="670.49" cy="23.96" rx="23.31" ry="19.79"/>
      <ellipse class="cls-2" cx="670.49" cy="23.96" rx="23.31" ry="15.62"/>
      <ellipse class="cls-2" cx="670.49" cy="23.96" rx="23.31" ry="11.08"/>
      <ellipse class="cls-2" cx="670.49" cy="23.96" rx="23.31" ry="7.29"/>
      <ellipse class="cls-2" cx="670.51" cy="24.06" rx="23.31" ry="3.22"/>
    </g>
  </g>
</svg>